<mxfile host="app.diagrams.net" modified="2023-02-14T16:09:54.219Z" agent="5.0 (Windows NT 10.0; Win64; x64) AppleWebKit/537.36 (KHTML, like Gecko) Chrome/110.0.0.0 Safari/537.36 Edg/110.0.1587.41" etag="K5Hs6Hah--xiBoaOdG8P" version="20.8.20" type="github">
  <diagram id="R2lEEEUBdFMjLlhIrx00" name="Page-1">
    <mxGraphModel dx="1480" dy="759" grid="1" gridSize="10" guides="1" tooltips="1" connect="1" arrows="1" fold="1" page="1" pageScale="1" pageWidth="850" pageHeight="1100" math="0" shadow="0" extFonts="Permanent Marker^https://fonts.googleapis.com/css?family=Permanent+Marker">
      <root>
        <mxCell id="0" />
        <mxCell id="1" parent="0" />
        <mxCell id="ZcMORs6bKGyeQukblqIx-1" value="Household" style="rounded=0;whiteSpace=wrap;html=1;" vertex="1" parent="1">
          <mxGeometry x="450" y="250" width="120" height="60" as="geometry" />
        </mxCell>
        <mxCell id="ZcMORs6bKGyeQukblqIx-2" value="&lt;u&gt;Email&lt;/u&gt;" style="ellipse;whiteSpace=wrap;html=1;" vertex="1" parent="1">
          <mxGeometry x="450" y="80" width="120" height="80" as="geometry" />
        </mxCell>
        <mxCell id="ZcMORs6bKGyeQukblqIx-3" value="Square Footage" style="ellipse;whiteSpace=wrap;html=1;" vertex="1" parent="1">
          <mxGeometry x="610" y="110" width="120" height="80" as="geometry" />
        </mxCell>
        <mxCell id="ZcMORs6bKGyeQukblqIx-4" value="Type" style="ellipse;whiteSpace=wrap;html=1;" vertex="1" parent="1">
          <mxGeometry x="690" y="240" width="120" height="80" as="geometry" />
        </mxCell>
        <mxCell id="ZcMORs6bKGyeQukblqIx-6" value="Public Utilities" style="ellipse;shape=doubleEllipse;whiteSpace=wrap;html=1;" vertex="1" parent="1">
          <mxGeometry x="640" y="360" width="130" height="80" as="geometry" />
        </mxCell>
        <mxCell id="ZcMORs6bKGyeQukblqIx-8" value="Thermostat Setting" style="ellipse;whiteSpace=wrap;html=1;" vertex="1" parent="1">
          <mxGeometry x="280" y="240" width="120" height="80" as="geometry" />
        </mxCell>
        <mxCell id="ZcMORs6bKGyeQukblqIx-9" value="Heating" style="ellipse;whiteSpace=wrap;html=1;" vertex="1" parent="1">
          <mxGeometry x="150" y="170" width="120" height="80" as="geometry" />
        </mxCell>
        <mxCell id="ZcMORs6bKGyeQukblqIx-10" value="Cooling" style="ellipse;whiteSpace=wrap;html=1;" vertex="1" parent="1">
          <mxGeometry x="150" y="310" width="120" height="80" as="geometry" />
        </mxCell>
        <mxCell id="ZcMORs6bKGyeQukblqIx-11" value="Postal Code" style="ellipse;whiteSpace=wrap;html=1;" vertex="1" parent="1">
          <mxGeometry x="290" y="110" width="120" height="80" as="geometry" />
        </mxCell>
        <mxCell id="ZcMORs6bKGyeQukblqIx-13" value="" style="endArrow=none;html=1;rounded=0;" edge="1" parent="1" source="ZcMORs6bKGyeQukblqIx-9" target="ZcMORs6bKGyeQukblqIx-8">
          <mxGeometry width="50" height="50" relative="1" as="geometry">
            <mxPoint x="650" y="420" as="sourcePoint" />
            <mxPoint x="700" y="370" as="targetPoint" />
          </mxGeometry>
        </mxCell>
        <mxCell id="ZcMORs6bKGyeQukblqIx-14" value="" style="endArrow=none;html=1;rounded=0;" edge="1" parent="1" source="ZcMORs6bKGyeQukblqIx-10" target="ZcMORs6bKGyeQukblqIx-8">
          <mxGeometry width="50" height="50" relative="1" as="geometry">
            <mxPoint x="177" y="235" as="sourcePoint" />
            <mxPoint x="233" y="265" as="targetPoint" />
          </mxGeometry>
        </mxCell>
        <mxCell id="ZcMORs6bKGyeQukblqIx-15" value="" style="endArrow=none;html=1;rounded=0;" edge="1" parent="1" source="ZcMORs6bKGyeQukblqIx-8" target="ZcMORs6bKGyeQukblqIx-1">
          <mxGeometry width="50" height="50" relative="1" as="geometry">
            <mxPoint x="187" y="245" as="sourcePoint" />
            <mxPoint x="243" y="275" as="targetPoint" />
          </mxGeometry>
        </mxCell>
        <mxCell id="ZcMORs6bKGyeQukblqIx-16" value="" style="endArrow=none;html=1;rounded=0;" edge="1" parent="1" source="ZcMORs6bKGyeQukblqIx-11" target="ZcMORs6bKGyeQukblqIx-1">
          <mxGeometry width="50" height="50" relative="1" as="geometry">
            <mxPoint x="197" y="255" as="sourcePoint" />
            <mxPoint x="253" y="285" as="targetPoint" />
          </mxGeometry>
        </mxCell>
        <mxCell id="ZcMORs6bKGyeQukblqIx-17" value="" style="endArrow=none;html=1;rounded=0;" edge="1" parent="1" source="ZcMORs6bKGyeQukblqIx-2" target="ZcMORs6bKGyeQukblqIx-1">
          <mxGeometry width="50" height="50" relative="1" as="geometry">
            <mxPoint x="207" y="265" as="sourcePoint" />
            <mxPoint x="263" y="295" as="targetPoint" />
          </mxGeometry>
        </mxCell>
        <mxCell id="ZcMORs6bKGyeQukblqIx-18" value="" style="endArrow=none;html=1;rounded=0;" edge="1" parent="1" source="ZcMORs6bKGyeQukblqIx-3" target="ZcMORs6bKGyeQukblqIx-1">
          <mxGeometry width="50" height="50" relative="1" as="geometry">
            <mxPoint x="217" y="275" as="sourcePoint" />
            <mxPoint x="273" y="305" as="targetPoint" />
          </mxGeometry>
        </mxCell>
        <mxCell id="ZcMORs6bKGyeQukblqIx-19" value="" style="endArrow=none;html=1;rounded=0;" edge="1" parent="1" source="ZcMORs6bKGyeQukblqIx-4" target="ZcMORs6bKGyeQukblqIx-1">
          <mxGeometry width="50" height="50" relative="1" as="geometry">
            <mxPoint x="227" y="285" as="sourcePoint" />
            <mxPoint x="283" y="315" as="targetPoint" />
          </mxGeometry>
        </mxCell>
        <mxCell id="ZcMORs6bKGyeQukblqIx-20" value="" style="endArrow=none;html=1;rounded=0;" edge="1" parent="1" source="ZcMORs6bKGyeQukblqIx-1" target="ZcMORs6bKGyeQukblqIx-6">
          <mxGeometry width="50" height="50" relative="1" as="geometry">
            <mxPoint x="237" y="295" as="sourcePoint" />
            <mxPoint x="293" y="325" as="targetPoint" />
          </mxGeometry>
        </mxCell>
      </root>
    </mxGraphModel>
  </diagram>
</mxfile>
